<?xml version="1.0" encoding="UTF-8" standalone="yes"?>
<!-- Created with sK1/UniConvertor (http://sk1project.org/) -->
<svg xmlns="http://www.w3.org/2000/svg" xmlns:xlink="http://www.w3.org/1999/xlink"
  width="512pt" height="512pt" viewBox="0 0 512 512"
  fill-rule="evenodd">
<g>
<g>
<path style="stroke:none; fill:#000000" d="M 0 256L 0 512L 116.8 511.9C 222.3 511.8 232.5 511.7 223 510.4C 127 497.4 47.1 430.9 17.7 339.5C 8.6 311.3 6.5 296.4 6.5 261.5C 6.6 230.2 7.8 220.1 14.5 195.4C 36.4 115.5 97.6 51.1 176.5 24.8C 184.2 22.2 190.9 19.2 195.1 16.4C 205.8 9.29999 218.5 4.19998 231.6 1.60001C 237.6 0.399994 222.9 0.200012 119.3 0.100006L 0 0L 0 256z"/>
<path style="stroke:none; fill:#000000" d="M 398.8 1.5C 416.2 5.29999 431.1 12.3 444 22.7C 476.7 49.2 490.1 92.4 478.4 133.6L 475.9 142.7L 480.8 152.6C 492.4 175.8 499.7 199.7 504.1 229.5C 506.2 243.1 505.9 283.4 503.7 298C 495.2 353.1 471.2 400.8 432.5 439.5C 402.2 469.7 363.6 492.2 322.6 503.5C 311.1 506.6 291 510.4 281.5 511.3C 279.3 511.5 330.3 511.7 394.8 511.8L 512 512L 512 256L 512 0L 452.3 0.100006C 399 0.200012 393.2 0.300018 398.8 1.5z"/>
</g>
</g>
</svg>